<?xml version="1.0" encoding="iso-8859-1"?>
<!-- Generator: Adobe Illustrator 16.0.0, SVG Export Plug-In . SVG Version: 6.00 Build 0)  -->
<!DOCTYPE svg PUBLIC "-//W3C//DTD SVG 1.1//EN" "http://www.w3.org/Graphics/SVG/1.1/DTD/svg11.dtd">
<svg version="1.1" id="Layer_1" xmlns="http://www.w3.org/2000/svg" xmlns:xlink="http://www.w3.org/1999/xlink" x="0px" y="0px"
	 width="800px" height="800px" viewBox="0 0 800 800" enable-background="new 0 0 800 800" xml:space="preserve">
<g id="Layer_2_1_">
	<g id="Surfaces">
		<g id="Photo_Surface">
			<g id="Outline_no_shadow">
				<path fill="#001E36" d="M163.97,43.671h472.057c71.575,0,129.438,57.865,129.438,129.437v453.783
					c0,71.575-57.863,129.438-129.438,129.438H163.97c-71.571,0-129.436-57.863-129.436-129.438V173.107
					C34.534,101.536,92.399,43.671,163.97,43.671z"/>
			</g>
		</g>
	</g>
	<g id="Outlined_Mnemonics_Logos">
		<g id="Ps">
			<path fill="#31A8FF" d="M198.994,543.445V230.059c0-2.131,0.914-3.351,3.045-3.351c5.178,0,10.05,0,17.055-0.303
				c7.31-0.305,14.923-0.305,23.146-0.61c8.223-0.304,17.055-0.304,26.496-0.608c9.442-0.305,18.579-0.305,27.716-0.305
				c24.973,0,45.683,3.046,62.737,9.442c15.229,5.176,29.237,13.704,40.811,24.973c9.747,9.746,17.359,21.624,22.23,34.719
				c4.568,12.792,7.007,25.887,7.007,39.591c0,26.193-6.093,47.816-18.273,64.87c-12.182,17.056-29.237,29.847-49.034,37.156
				c-20.709,7.612-43.55,10.354-68.524,10.354c-7.31,0-12.182,0-15.227-0.303c-3.046-0.303-7.309-0.303-13.097-0.303v97.762
				c0.306,2.13-1.217,3.958-3.349,4.26c-0.305,0-0.609,0-1.219,0h-57.865C200.211,547.402,198.994,546.187,198.994,543.445z
				 M265.387,285.488v102.33c4.263,0.304,8.223,0.608,11.877,0.608h16.141c11.877,0,23.755-1.827,35.024-5.482
				c9.745-2.741,18.273-8.527,24.973-16.14c6.396-7.615,9.441-17.969,9.441-31.37c0.306-9.441-2.132-18.882-7.004-27.104
				c-5.178-7.919-12.488-14.011-21.32-17.36c-11.268-4.568-23.45-6.396-35.937-6.091c-7.918,0-14.923,0-20.71,0.304
				C271.783,284.878,267.519,285.182,265.387,285.488L265.387,285.488z"/>
			<path fill="#31A8FF" d="M619.279,369.239c-9.137-4.872-18.885-8.223-29.237-10.354c-11.268-2.437-22.539-3.959-34.108-3.959
				c-6.093-0.305-12.488,0.609-18.273,2.131c-3.963,0.914-7.309,3.045-9.445,6.092c-1.519,2.435-2.433,5.482-2.433,8.223
				c0,2.741,1.217,5.482,3.044,7.917c2.741,3.351,6.396,6.092,10.354,8.224c7.007,3.655,14.316,7.005,21.625,10.05
				c16.445,5.48,32.281,13.098,46.899,22.234c10.05,6.396,18.273,14.921,24.063,25.274c4.871,9.747,7.31,20.409,7.001,31.373
				c0.309,14.311-3.957,28.626-11.877,40.504c-8.525,12.181-20.403,21.625-34.108,27.107c-14.921,6.396-33.194,9.741-55.123,9.741
				c-14.013,0-27.718-1.216-41.423-3.957c-10.655-1.827-21.317-5.18-31.064-9.747c-2.13-1.217-3.654-3.347-3.347-5.785v-52.992
				c0-0.914,0.303-2.13,1.217-2.741c0.913-0.611,1.827-0.303,2.741,0.303c11.877,7.007,24.365,11.878,37.763,14.927
				c11.574,3.044,23.755,4.568,35.94,4.568c11.569,0,19.792-1.524,25.274-4.266c4.877-2.13,8.223-7.31,8.223-12.791
				c0-4.266-2.432-8.223-7.309-12.181c-4.871-3.963-14.922-8.531-29.843-14.316c-15.532-5.481-29.849-12.791-43.251-21.928
				c-9.439-6.698-17.359-15.531-23.144-25.885c-4.871-9.748-7.31-20.408-7.007-31.066c0-13.097,3.654-25.583,10.358-36.852
				c7.612-12.182,18.879-21.928,31.979-28.018c14.311-7.31,32.281-10.66,53.906-10.66c12.483,0,25.273,0.914,37.763,2.741
				c9.137,1.217,17.971,3.655,26.194,7.005c1.216,0.304,2.432,1.522,3.044,2.741c0.302,1.218,0.609,2.436,0.609,3.655v49.643
				c0,1.217-0.609,2.437-1.523,3.044C622.02,369.849,620.496,369.849,619.279,369.239z"/>
		</g>
	</g>
</g>
</svg>
